<svg xmlns="http://www.w3.org/2000/svg" width="18.477" height="21.84" viewBox="0 0 18.477 21.84">
  <g id="bookmark-black-shape" transform="translate(-33.261)">
    <path id="Path_2" data-name="Path 2" d="M51.456.722A1.627,1.627,0,0,0,50.7.13,1.6,1.6,0,0,0,50.063,0H34.935A1.6,1.6,0,0,0,34.3.13a1.626,1.626,0,0,0-.758.592,1.532,1.532,0,0,0-.282.895V20.223a1.533,1.533,0,0,0,.282.9,1.626,1.626,0,0,0,.758.592,1.6,1.6,0,0,0,.635.13,1.721,1.721,0,0,0,1.2-.476L42.5,15.243l6.366,6.121a1.718,1.718,0,0,0,1.2.461,1.679,1.679,0,0,0,1.393-.707,1.531,1.531,0,0,0,.281-.895V1.617A1.532,1.532,0,0,0,51.456.722Z" fill="#fff"/>
  </g>
</svg>
