<svg xmlns="http://www.w3.org/2000/svg" width="22.113" height="22.112" viewBox="0 0 22.113 22.112">
  <g id="magnifying-glass" transform="translate(0 -0.003)">
    <path id="Path_3" data-name="Path 3" d="M21.621,19.219l-4.558-4.558a9.1,9.1,0,0,0,1.648-5.3,9.19,9.19,0,0,0-.738-3.635A9.162,9.162,0,0,0,12.99.741a9.324,9.324,0,0,0-7.269,0A9.161,9.161,0,0,0,.738,5.724a9.323,9.323,0,0,0,0,7.269,9.164,9.164,0,0,0,4.983,4.983,9.194,9.194,0,0,0,3.634.737,9.1,9.1,0,0,0,5.3-1.648l4.558,4.545a1.579,1.579,0,0,0,1.2.5,1.7,1.7,0,0,0,1.209-2.9Zm-8.06-5.655a5.733,5.733,0,0,1-4.206,1.748A5.734,5.734,0,0,1,5.15,13.564,5.733,5.733,0,0,1,3.4,9.358,5.734,5.734,0,0,1,5.15,5.152,5.733,5.733,0,0,1,9.355,3.4a5.734,5.734,0,0,1,4.206,1.748,5.733,5.733,0,0,1,1.748,4.206A5.733,5.733,0,0,1,13.561,13.564Z" transform="translate(0 0)" fill="#222"/>
  </g>
</svg>
