<svg xmlns="http://www.w3.org/2000/svg" width="18.289" height="18.289" viewBox="0 0 18.289 18.289">
  <g id="magnifying-glass" transform="translate(0 -0.003)">
    <path id="Path_3" data-name="Path 3" d="M17.883,15.9l-3.77-3.77a7.527,7.527,0,0,0,1.363-4.386,7.6,7.6,0,0,0-.61-3.006A7.578,7.578,0,0,0,10.744.613a7.712,7.712,0,0,0-6.012,0A7.578,7.578,0,0,0,.61,4.735a7.712,7.712,0,0,0,0,6.012,7.58,7.58,0,0,0,4.122,4.122,7.6,7.6,0,0,0,3.006.61,7.528,7.528,0,0,0,4.386-1.363l3.77,3.759a1.306,1.306,0,0,0,.989.418,1.407,1.407,0,0,0,1-2.4Zm-6.666-4.677a4.742,4.742,0,0,1-3.479,1.446,4.742,4.742,0,0,1-3.479-1.446A4.742,4.742,0,0,1,2.814,7.741,4.742,4.742,0,0,1,4.259,4.262,4.742,4.742,0,0,1,7.738,2.817a4.743,4.743,0,0,1,3.479,1.445,4.742,4.742,0,0,1,1.446,3.479A4.742,4.742,0,0,1,11.217,11.219Z" transform="translate(0 0)" fill="#003bff"/>
  </g>
</svg>
