<svg xmlns="http://www.w3.org/2000/svg" width="17.41" height="16.68" viewBox="0 0 17.41 16.68">
  <path id="star_1_" data-name="star (1)" d="M17.032,8.606a1.249,1.249,0,0,0-.692-2.13l-4.216-.613a.551.551,0,0,1-.415-.3L9.824,1.743a1.249,1.249,0,0,0-2.239,0L5.7,5.563a.551.551,0,0,1-.415.3l-4.216.613a1.249,1.249,0,0,0-.692,2.13l3.05,2.973a.552.552,0,0,1,.159.488l-.72,4.2a1.222,1.222,0,0,0,.272,1.012,1.262,1.262,0,0,0,1.539.3L8.448,15.6a.564.564,0,0,1,.513,0l3.77,1.982a1.236,1.236,0,0,0,.581.145,1.252,1.252,0,0,0,.958-.449,1.222,1.222,0,0,0,.272-1.012l-.72-4.2a.552.552,0,0,1,.159-.488Z" transform="translate(0.001 -1.047)" fill="#d03000"/>
</svg>
