<svg id="iconfinder_Untitled-2-18_3253495" xmlns="http://www.w3.org/2000/svg" width="71" height="71" viewBox="0 0 71 71">
  <path id="XMLID_6660_" d="M63.664,13.909a35.456,35.456,0,0,0-56.315,0c-.444.569-.874,1.165-1.29,1.775s-.79,1.206-1.151,1.83c-.25.416-.485.832-.707,1.262-.125.208-.222.416-.333.624-.291.555-.555,1.123-.818,1.706-.222.471-.416.943-.61,1.428a33.18,33.18,0,0,0-1.373,4.313c-.125.471-.236.943-.333,1.428C.5,29.426.319,30.619.194,31.811c-.083.818-.139,1.65-.166,2.482C.014,34.71,0,35.1,0,35.5A35.481,35.481,0,0,0,63.65,57.091a35.416,35.416,0,0,0,.014-43.182Z" fill="#032774"/>
  <g id="XMLID_6645_" transform="translate(0 13.895)">
    <path id="XMLID_6659_" d="M8.472,204.1,1.4,207.636c.125-1.193.305-2.385.541-3.536Z" transform="translate(-1.206 -189.692)" fill="#032774"/>
    <path id="XMLID_6658_" d="M53.31,100.214V106.8l-9.61-4.826c.4-.61.832-1.193,1.29-1.775h8.32Z" transform="translate(-37.64 -100.2)" fill="#032774"/>
    <path id="XMLID_6657_" d="M26.216,141.606H22c.25-.582.527-1.151.818-1.706Z" transform="translate(-18.949 -134.395)" fill="#032774"/>
    <path id="XMLID_6656_" d="M235.1,122.4v-4.8l-9.6,4.8Z" transform="translate(-194.229 -115.187)" fill="#032774"/>
    <path id="XMLID_6655_" d="M178.046,100.2H164.9v6.587Z" transform="translate(-142.033 -100.2)" fill="#032774"/>
    <path id="XMLID_6654_" d="M235.1,208.884V204.1h-9.6Z" transform="translate(-194.229 -189.692)" fill="#032774"/>
    <path id="XMLID_6653_" d="M18.2,215.087H31.346V208.5Z" transform="translate(-15.676 -193.482)" fill="#032774"/>
    <path id="XMLID_6652_" d="M164.9,215.087h13.146L164.9,208.5Z" transform="translate(-142.033 -193.482)" fill="#032774"/>
    <path id="XMLID_6651_" d="M41.039,102.785l-9.6,4.812h9.6v7.183h-9.6l9.6,4.8v.818L29.82,114.78H26.6L41,121.977H36.185l-13.16-6.587v6.587H15.842V115.39L2.7,121.977H1.074l14.394-7.2H12.251L.2,120.8c.028-.832.083-1.664.166-2.482l7.072-3.536H.907c.1-.485.222-.971.333-1.428a33.969,33.969,0,0,1,1.373-4.313c.194-.485.388-.971.61-1.428H7.439l-3.4-1.706c.111-.222.222-.416.333-.624l4.659,2.33h3.231l-7.183-3.605c.361-.624.749-1.234,1.151-1.83l9.61,4.812V100.4h7.183v6.587l13.16-6.587h1.609L23.4,107.6h3.231l14.394-7.2h.028v2.385Z" transform="translate(-0.172 -100.372)" fill="#fff"/>
    <path id="XMLID_6650_" d="M38.19,129.892H34.959l-4.659-2.33c.222-.43.458-.846.707-1.262Z" transform="translate(-26.098 -122.681)" fill="#df0333"/>
    <path id="XMLID_6649_" d="M190.6,204.1l14.394,7.2h.042V209.7l-11.2-5.6Z" transform="translate(-164.169 -189.692)" fill="#df0333"/>
    <path id="XMLID_6648_" d="M167.4,107.411h3.231l14.408-7.211h-3.231Z" transform="translate(-144.186 -100.2)" fill="#df0333"/>
    <path id="XMLID_6647_" d="M15.3,204.1.9,211.3H0c0-.4.014-.79.028-1.179L12.078,204.1Z" transform="translate(0 -189.692)" fill="#df0333"/>
    <path id="XMLID_6646_" d="M47.5,108.939v4.313H28.057v8.639H23.744v-8.639H7.7a33.969,33.969,0,0,1,1.373-4.313H23.73V100.3h4.313v8.639H47.5Z" transform="translate(-6.632 -100.286)" fill="#df0333"/>
  </g>
  <path id="XMLID_6644_" d="M99.71,296.616l-2.8,2.9.5-4.008-4.008-.388,3.453-2.094-2.2-3.384,3.786,1.387L99.71,287.2l1.276,3.827,3.786-1.387-2.191,3.384,3.439,2.094-4.008.388.513,4.008Z" transform="translate(-80.448 -247.373)" fill="#fff"/>
  <path id="XMLID_6643_" d="M375.323,342.021l-1.345,1.387.25-1.928-1.928-.18,1.65-1-1.054-1.622,1.817.666.61-1.844.61,1.844,1.817-.666L376.7,340.3l1.65,1-1.928.18.25,1.928Z" transform="translate(-320.672 -290.698)" fill="#fff"/>
  <path id="XMLID_6642_" d="M320.023,218.707l-1.345,1.387.236-1.914L317,217.986l1.65-1-1.054-1.622,1.817.666.61-1.83.61,1.83,1.817-.666-1.054,1.622,1.65,1-1.928.194.25,1.914Z" transform="translate(-273.041 -184.496)" fill="#fff"/>
  <path id="XMLID_6641_" d="M375.323,134.407l-1.345,1.373.236-1.914-1.914-.18,1.636-1-1.04-1.622,1.817.666.61-1.83.61,1.83,1.817-.666-1.054,1.622,1.65,1-1.928.18.236,1.914Z" transform="translate(-320.672 -111.887)" fill="#fff"/>
  <path id="XMLID_6640_" d="M444.423,197.907l-1.345,1.387.236-1.914-1.914-.18,1.65-1.012L442,194.579l1.817.652.61-1.83.61,1.83,1.8-.652-1.04,1.609,1.65,1.012-1.928.18.25,1.914Z" transform="translate(-380.19 -166.581)" fill="#fff"/>
  <path id="XMLID_6639_" d="M414.261,258.235l-1.082.721.347-1.262-1.026-.818,1.317-.055.444-1.22.458,1.22,1.317.055-1.026.818.347,1.262Z" transform="translate(-355.298 -220.155)" fill="#fff"/>
</svg>
