<svg xmlns="http://www.w3.org/2000/svg" xmlns:xlink="http://www.w3.org/1999/xlink" width="41" height="53.063" viewBox="0 0 41 53.063">
  <metadata><?xpacket begin="﻿" id="W5M0MpCehiHzreSzNTczkc9d"?>
<x:xmpmeta xmlns:x="adobe:ns:meta/" x:xmptk="Adobe XMP Core 5.6-c142 79.160924, 2017/07/13-01:06:39        ">
   <rdf:RDF xmlns:rdf="http://www.w3.org/1999/02/22-rdf-syntax-ns#">
      <rdf:Description rdf:about=""/>
   </rdf:RDF>
</x:xmpmeta>
                                                                                                    
                                                                                                    
                                                                                                    
                                                                                                    
                                                                                                    
                                                                                                    
                                                                                                    
                                                                                                    
                                                                                                    
                                                                                                    
                                                                                                    
                                                                                                    
                                                                                                    
                                                                                                    
                                                                                                    
                                                                                                    
                                                                                                    
                                                                                                    
                                                                                                    
                                                                                                    
                           
<?xpacket end="w"?></metadata>
<defs>
    <style>
      .cls-1 {
        fill: #ffb370;
        fill-rule: evenodd;
        filter: url(#filter);
      }
    </style>
    <filter id="filter" x="22" y="18" width="41" height="53.063" filterUnits="userSpaceOnUse">
      <feOffset result="offset" dy="-2" in="SourceAlpha"/>
      <feGaussianBlur result="blur"/>
      <feFlood result="flood" flood-opacity="0.2"/>
      <feComposite result="composite" operator="in" in2="blur"/>
      <feBlend result="blend" in="SourceGraphic"/>
    </filter>
  </defs>
  <path id="githab" class="cls-1" d="M43.5,24C54.27,24,63,30.716,63,39S54.27,54,43.5,54,24,47.284,24,39,32.731,24,43.5,24ZM36,26s-6.515-6.219-8-4.845S26.21,28.7,28,31,36,26,36,26Zm14,0s6.515-6.219,8-4.845S59.79,28.7,58,31,50,26,50,26ZM38,54s-2.122.17-2,4v9a4.27,4.27,0,0,1-2,2s-1.141.946,1,1c0,0,2.112.057,3-1a4.272,4.272,0,0,0,1-3c0.033-1.041,0-6,0-6s0.729-2.048,1,0v8a4.3,4.3,0,0,1-2,3s3.741,0.891,5-4h0V54H38Zm11,0s2.122,0.17,2,4v9a4.269,4.269,0,0,0,2,2s1.141,0.946-1,1c0,0-2.112.057-3-1a4.271,4.271,0,0,1-1-3c-0.033-1.041,0-6,0-6s-0.729-2.048-1,0v8a4.3,4.3,0,0,0,2,3s-3.741.891-5-4h0V54h5Zm-6,6s0.646-1.153,1,0V54H43v6Zm-7-3s-5.027,2.864-10-5c0,0-2.326-2.214-4,1h0s2.32-1.692,3,1,3.361,6.433,5,7,5.74,0.023,6,2S36,57,36,57Z" transform="translate(-22 -18)"/>
</svg>
