<svg xmlns="http://www.w3.org/2000/svg" width="139.87" height="48.25" viewBox="0 0 139.87 48.25">
  <g id="Group_3351" data-name="Group 3351" transform="translate(-323.5 -53)">
    <path id="Path_1" data-name="Path 1" d="M10.53.45A7.167,7.167,0,0,1,5.782-1.035Q4-2.52,4.005-5.76v-16.2l-3.2-.45v-.9h3.2v-3.735l4.5-1.125v4.86h7.67v.9l-7.67.45V-5.85q0,4.77,3.42,4.77A4.18,4.18,0,0,0,13.3-1.3a5.858,5.858,0,0,0,1.035-.45,2.984,2.984,0,0,0,.472-.315l.585.72A7.065,7.065,0,0,1,10.53.45ZM19.98,0V-21.96l-3.15-.45v-.9h7.65v3.465q2.835-3.87,6.39-3.87a5.275,5.275,0,0,1,3.015.878,2.833,2.833,0,0,1,1.305,2.5,2.7,2.7,0,0,1-.765,1.958,2.7,2.7,0,0,1-2.025.788,2.857,2.857,0,0,1-2.34-1.125,2.146,2.146,0,0,0,.495-1.35,1.6,1.6,0,0,0-.518-1.238,1.957,1.957,0,0,0-1.372-.472,2.965,2.965,0,0,0-1.935.878,15.074,15.074,0,0,0-2.25,2.722V-1.35l3.6.45V0ZM41.535-28.53a2.984,2.984,0,0,1-2.16-.878,2.872,2.872,0,0,1-.9-2.137,2.835,2.835,0,0,1,.877-2.115,3,3,0,0,1,2.182-.855,2.819,2.819,0,0,1,2.07.855,2.873,2.873,0,0,1,.855,2.115,2.948,2.948,0,0,1-.855,2.137A2.783,2.783,0,0,1,41.535-28.53ZM36.765,0V-.9l3.15-.45V-21.915l-3.15-.45v-.9h7.65V-1.35l3.15.45V0Zm12.69,11.835,3.15-.45v-33.3l-8.145-.45v-.9H57.1v4.725a9.435,9.435,0,0,1,3.037-3.8,7.626,7.626,0,0,1,4.568-1.373,10.449,10.449,0,0,1,5.625,1.507,10.163,10.163,0,0,1,3.78,4.23,14.168,14.168,0,0,1,1.35,6.368,14.168,14.168,0,0,1-1.35,6.367,10.012,10.012,0,0,1-3.78,4.207A10.57,10.57,0,0,1,64.71.45,7.626,7.626,0,0,1,60.142-.923,9.494,9.494,0,0,1,57.1-4.68V11.385l4.23.45v.9H49.455ZM64.26-.675q6.255,0,6.255-8.685v-4.5q0-8.73-6.255-8.73a6.086,6.086,0,0,0-3.6,1.147,7.987,7.987,0,0,0-2.565,3.083,9.868,9.868,0,0,0-.99,4.185V-9.36a10.147,10.147,0,0,0,.922,4.3,7.985,7.985,0,0,0,2.565,3.2A6.1,6.1,0,0,0,64.26-.675ZM104.94-28.53a2.984,2.984,0,0,1-2.16-.878,2.872,2.872,0,0,1-.9-2.137,2.835,2.835,0,0,1,.878-2.115,3,3,0,0,1,2.182-.855,2.819,2.819,0,0,1,2.07.855,2.873,2.873,0,0,1,.855,2.115,2.948,2.948,0,0,1-.855,2.137A2.783,2.783,0,0,1,104.94-28.53ZM100.17,0V-.9l3.15-.45V-21.915l-3.15-.45v-.9h7.65V-1.35L112.3-.9V0Zm12.96-.9,3.15-.45V-21.96l-3.15-.45v-.9h7.65v4.86a13.439,13.439,0,0,1,3.915-3.847,8.95,8.95,0,0,1,4.86-1.417,7.532,7.532,0,0,1,5.108,1.62,6.03,6.03,0,0,1,1.867,4.815V-1.35l3.15.45V0H129.33V-.9l2.7-.45V-17.19a6.018,6.018,0,0,0-.945-3.622,3.393,3.393,0,0,0-2.925-1.282,6.357,6.357,0,0,0-3.982,1.507,16.2,16.2,0,0,0-3.4,3.712V-1.35l2.7.45V0H113.13Z" transform="translate(323.19 88.015)" fill="#fff" stroke="#fff" stroke-width="1"/>
    <circle id="Ellipse_1" data-name="Ellipse 1" cx="4.5" cy="4.5" r="4.5" transform="translate(406.19 73)" fill="#d03000"/>
  </g>
</svg>
