<svg xmlns="http://www.w3.org/2000/svg" width="19.859" height="24.838" viewBox="0 0 19.859 24.838">
  <path id="Path_882" data-name="Path 882" d="M83.406,63.781c-7,0-10.53,4.861-10.53,8.913,0,2.454.959,4.637,3.018,5.451a.51.51,0,0,0,.738-.356l.3-1.146a.677.677,0,0,0-.211-.795,4.024,4.024,0,0,1-.972-2.8A6.872,6.872,0,0,1,83,66.216c3.958,0,6.131,2.341,6.131,5.467,0,4.113-1.88,7.586-4.672,7.586a2.23,2.23,0,0,1-2.325-2.75c.442-1.806,1.3-3.757,1.3-5.062a1.936,1.936,0,0,0-1.988-2.142c-1.576,0-2.841,1.578-2.841,3.693a5.336,5.336,0,0,0,.471,2.258l-1.9,7.775a15.532,15.532,0,0,0-.044,5.421.2.2,0,0,0,.35.082,15.124,15.124,0,0,0,2.66-4.671c.181-.635,1.037-3.922,1.037-3.922a4.259,4.259,0,0,0,3.6,1.78c4.735,0,7.949-4.181,7.949-9.777C92.734,67.723,89.033,63.781,83.406,63.781Z" transform="translate(-72.876 -63.781)" fill="#222"/>
</svg>
