<svg xmlns="http://www.w3.org/2000/svg" width="12.688" height="12.688" viewBox="0 0 12.688 12.688">
  <path id="Path_901" data-name="Path 901" d="M5.2-8.58a1.11,1.11,0,0,1,.819.325,1.11,1.11,0,0,1,.325.819,1.11,1.11,0,0,1-.325.819,1.11,1.11,0,0,1-.819.325H1.144v4.03a1.154,1.154,0,0,1-.325.832A1.088,1.088,0,0,1,0-1.092,1.088,1.088,0,0,1-.819-1.43a1.154,1.154,0,0,1-.325-.832v-4.03H-5.2a1.11,1.11,0,0,1-.819-.325,1.11,1.11,0,0,1-.325-.819,1.11,1.11,0,0,1,.325-.819A1.11,1.11,0,0,1-5.2-8.58h4.056v-4.056a1.11,1.11,0,0,1,.325-.819A1.11,1.11,0,0,1,0-13.78a1.11,1.11,0,0,1,.819.325,1.11,1.11,0,0,1,.325.819V-8.58Z" transform="translate(6.344 13.781)" fill="#fff"/>
</svg>
