<svg xmlns="http://www.w3.org/2000/svg" width="23.48" height="23.152" viewBox="0 0 23.48 23.152">
  <path id="Path_912" data-name="Path 912" d="M-5.873-28.678a2.028,2.028,0,0,1-1.492-.605,2.128,2.128,0,0,1-.605-1.573l-.242-16.618A4.215,4.215,0,0,1-7.2-50.7,3.9,3.9,0,0,1-4.259-51.83a3.411,3.411,0,0,1,2.46.887,3.3,3.3,0,0,1,.928,2.5,6.089,6.089,0,0,1-.081,1.129L-3.614-30.856Q-3.937-28.678-5.873-28.678Zm16.134,0a2.028,2.028,0,0,1-1.492-.605,2.128,2.128,0,0,1-.605-1.573L7.922-47.474A4.215,4.215,0,0,1,8.93-50.7a3.9,3.9,0,0,1,2.944-1.129,3.411,3.411,0,0,1,2.46.887,3.3,3.3,0,0,1,.928,2.5,6.089,6.089,0,0,1-.081,1.129L12.52-30.856Q12.2-28.678,10.261-28.678Z" transform="translate(8.218 51.83)" fill="#fff"/>
</svg>
