<svg id="facebook-logo" xmlns="http://www.w3.org/2000/svg" width="13.738" height="25.411" viewBox="0 0 13.738 25.411">
  <path id="Path_717" data-name="Path 717" d="M35.3.005,32,0c-3.7,0-6.094,2.455-6.094,6.254V9.137H22.6a.518.518,0,0,0-.518.518v4.178a.518.518,0,0,0,.518.518h3.313V24.893a.518.518,0,0,0,.518.518h4.323a.518.518,0,0,0,.518-.518V14.351h3.874a.518.518,0,0,0,.518-.518l0-4.178a.519.519,0,0,0-.518-.518H31.267V6.693c0-1.175.28-1.771,1.81-1.771H35.3a.518.518,0,0,0,.518-.518V.523A.518.518,0,0,0,35.3.005Z" transform="translate(-22.077)" fill="#fff"/>
</svg>
