<svg xmlns="http://www.w3.org/2000/svg" width="23.222" height="23.221" viewBox="0 0 23.222 23.221">
  <g id="instagram_4_" data-name="instagram (4)" transform="translate(0 0)">
    <g id="Group_152" data-name="Group 152">
      <g id="Group_151" data-name="Group 151">
        <path id="Path_445" data-name="Path 445" d="M15.965,0H7.257A7.258,7.258,0,0,0,0,7.257v8.708a7.258,7.258,0,0,0,7.257,7.257h8.708a7.258,7.258,0,0,0,7.257-7.257V7.257A7.258,7.258,0,0,0,15.965,0Zm5.08,15.965a5.085,5.085,0,0,1-5.08,5.08H7.257a5.085,5.085,0,0,1-5.08-5.08V7.257a5.085,5.085,0,0,1,5.08-5.08h8.708a5.085,5.085,0,0,1,5.08,5.08Z" fill="#fff"/>
      </g>
    </g>
    <g id="Group_154" data-name="Group 154" transform="translate(5.805 5.805)">
      <g id="Group_153" data-name="Group 153">
        <path id="Path_446" data-name="Path 446" d="M133.805,128a5.805,5.805,0,1,0,5.805,5.805A5.806,5.806,0,0,0,133.805,128Zm0,9.434a3.628,3.628,0,1,1,3.628-3.628A3.633,3.633,0,0,1,133.805,137.434Z" transform="translate(-128 -128)" fill="#fff"/>
      </g>
    </g>
    <g id="Group_156" data-name="Group 156" transform="translate(17.078 4.596)">
      <g id="Group_155" data-name="Group 155">
        <circle id="Ellipse_28" data-name="Ellipse 28" cx="0.774" cy="0.774" r="0.774" fill="#fff"/>
      </g>
    </g>
  </g>
</svg>
