<svg xmlns="http://www.w3.org/2000/svg" width="23.702" height="16.592" viewBox="0 0 23.702 16.592">
  <g id="black-envelope_1_" data-name="black-envelope (1)" transform="translate(0 -4.179)">
    <g id="Group_27" data-name="Group 27" transform="translate(0 4.179)">
      <path id="Path_5" data-name="Path 5" d="M2.128,5.159l8.537,6.763a2.172,2.172,0,0,0,1.439.417,2.166,2.166,0,0,0,1.438-.417L22.08,5.159c.684-.539.529-.98-.339-.98H2.47C1.6,4.179,1.446,4.621,2.128,5.159Z" transform="translate(-0.254 -4.179)" fill="#fff"/>
      <path id="Path_6" data-name="Path 6" d="M22.443,7.382l-9.33,7.083a2.265,2.265,0,0,1-2.523,0L1.259,7.382C.567,6.857,0,7.138,0,8.007V19.629a1.585,1.585,0,0,0,1.58,1.58H22.122a1.585,1.585,0,0,0,1.58-1.58V8.007C23.7,7.138,23.135,6.857,22.443,7.382Z" transform="translate(0 -4.617)" fill="#fff"/>
    </g>
  </g>
</svg>
