<svg xmlns="http://www.w3.org/2000/svg" width="25.49" height="20.706" viewBox="0 0 25.49 20.706">
  <g id="twitter-logo-silhouette" transform="translate(0 0)">
    <g id="Group_2873" data-name="Group 2873">
      <path id="Path_825" data-name="Path 825" d="M25.492,59.891a10.442,10.442,0,0,1-3,.824,5.251,5.251,0,0,0,2.3-2.891,10.542,10.542,0,0,1-3.323,1.27,5.233,5.233,0,0,0-8.91,4.767A14.846,14.846,0,0,1,1.777,58.4,5.235,5.235,0,0,0,3.4,65.377a5.23,5.23,0,0,1-2.369-.656v.065a5.234,5.234,0,0,0,4.194,5.127,5.3,5.3,0,0,1-1.378.183,5.02,5.02,0,0,1-.984-.1,5.232,5.232,0,0,0,4.884,3.632,10.492,10.492,0,0,1-6.494,2.235A11.118,11.118,0,0,1,0,75.794a14.781,14.781,0,0,0,8.015,2.353A14.775,14.775,0,0,0,22.894,63.269l-.018-.677A10.442,10.442,0,0,0,25.492,59.891Z" transform="translate(-0.001 -57.441)" fill="#222"/>
    </g>
  </g>
</svg>
